<svg width="657.9px" height="120.8px" xmlns="http://www.w3.org/2000/svg" viewBox="-78.9375 14.600000000000001 657.875 120.8" style="background: rgba(0, 0, 0, 0)" preserveAspectRatio="xMidYMid"><defs><linearGradient id="editing-gradient-gradient" x1="0" x2="1" y1="0.5" y2="0.5" gradientUnits="objectBoundingBox"><stop offset="0" stop-color="#1c193e"></stop><stop offset="1" stop-color="#867bef"></stop></linearGradient></defs><g><g transform="matrix(1.3,0,0,1.9,-46.6,239.6)"><path d="M -1.2 -71.6 L -15.1 -71.6 L -7 -113.8 L 7.1 -113.8 L -1.2 -71.6 Z M 54.6 -70.3 L 54.6 -70.3 L 54.6 -70.3 Q 46.8 -70.3 46.8 -76.3 L 46.8 -76.3 L 46.8 -76.3 Q 46.8 -78.9 48 -84 L 48 -84 L 48 -84 Q 49.1 -89.1 49.5 -91.1 L 49.5 -91.1 L 49.5 -91.1 Q 50.4 -95.8 50.4 -97.3 L 50.4 -97.3 L 50.4 -97.3 Q 50.4 -100.5 47.9 -100.5 L 47.9 -100.5 L 47.9 -100.5 Q 46.3 -100.5 44.8 -98.3 L 44.8 -98.3 L 44.8 -98.3 Q 43.2 -96.1 42.5 -91.7 L 42.5 -91.7 L 38.6 -71.6 L 26.1 -70.3 L 29.6 -87.7 L 29.6 -87.7 Q 30.1 -90.6 30.6 -93.8 L 30.6 -93.8 L 30.6 -93.8 Q 31.2 -97.1 31.2 -97.6 L 31.2 -97.6 L 31.2 -97.6 Q 31.2 -100.5 29 -100.5 L 29 -100.5 L 29 -100.5 Q 27.5 -100.5 25.9 -98.4 L 25.9 -98.4 L 25.9 -98.4 Q 24.3 -96.2 23.4 -91.7 L 23.4 -91.7 L 19.5 -71.6 L 6.9 -70.3 L 13.6 -104.2 L 24 -105.5 L 23 -99 L 23 -99 Q 24.6 -102.5 27.7 -104 L 27.7 -104 L 27.7 -104 Q 30.8 -105.5 35.6 -105.5 L 35.6 -105.5 L 35.6 -105.5 Q 38.3 -105.5 40.1 -104.1 L 40.1 -104.1 L 40.1 -104.1 Q 41.9 -102.8 42.5 -100.6 L 42.5 -100.6 L 42.5 -100.6 Q 43.6 -102.9 46.4 -104.2 L 46.4 -104.2 L 46.4 -104.2 Q 49.1 -105.5 52.6 -105.5 L 52.6 -105.5 L 52.6 -105.5 Q 56 -105.5 57.7 -104.7 L 57.7 -104.7 L 57.7 -104.7 Q 59.4 -104 60.4 -102.8 L 60.4 -102.8 L 60.4 -102.8 Q 62.1 -100.5 62.1 -96.5 L 62.1 -96.5 L 62.1 -96.5 Q 62.1 -92.4 60.4 -84 L 60.4 -84 L 60.4 -84 Q 59.5 -79.9 59.5 -78.4 L 59.5 -78.4 L 59.5 -78.4 Q 59.5 -76.9 60.4 -76 L 60.4 -76 L 60.4 -76 Q 61.2 -75.1 62.5 -75 L 62.5 -75 L 62.5 -75 Q 61.9 -72.8 59.7 -71.6 L 59.7 -71.6 L 59.7 -71.6 Q 57.5 -70.3 54.6 -70.3 Z M 70.2 -73.5 L 70.2 -73.5 L 70.2 -73.5 Q 68.7 -75.1 68 -77.8 L 68 -77.8 L 68 -77.8 Q 67.4 -80.4 67.4 -84.7 L 67.4 -84.7 L 67.4 -84.7 Q 67.4 -89 68.8 -92.9 L 68.8 -92.9 L 68.8 -92.9 Q 70.3 -96.8 73 -99.6 L 73 -99.6 L 73 -99.6 Q 78.5 -105.5 87.6 -105.5 L 87.6 -105.5 L 87.6 -105.5 Q 90.9 -105.5 93.2 -104.4 L 93.2 -104.4 L 104.2 -105.5 L 99.4 -80.5 L 99.4 -80.5 Q 99.2 -79.7 99.2 -78.3 L 99.2 -78.3 L 99.2 -78.3 Q 99.2 -76.9 100.1 -76 L 100.1 -76 L 100.1 -76 Q 101 -75.1 102.3 -75 L 102.3 -75 L 102.3 -75 Q 101.6 -72.8 99.3 -71.6 L 99.3 -71.6 L 99.3 -71.6 Q 96.9 -70.3 94.3 -70.3 L 94.3 -70.3 L 94.3 -70.3 Q 91.7 -70.3 89.9 -71.3 L 89.9 -71.3 L 89.9 -71.3 Q 88.2 -72.3 87.7 -73.9 L 87.7 -73.9 L 87.7 -73.9 Q 86.6 -72.3 84.5 -71.3 L 84.5 -71.3 L 84.5 -71.3 Q 82.3 -70.3 79.4 -70.3 L 79.4 -70.3 L 79.4 -70.3 Q 76.5 -70.3 74.1 -71 L 74.1 -71 L 74.1 -71 Q 71.7 -71.8 70.2 -73.5 Z M 83.7 -99.5 L 83.7 -99.5 L 83.7 -99.5 Q 83 -98.3 82.4 -96.4 L 82.4 -96.4 L 82.4 -96.4 Q 81.7 -94.4 80.7 -89.2 L 80.7 -89.2 L 80.7 -89.2 Q 79.6 -84 79.6 -80.3 L 79.6 -80.3 L 79.6 -80.3 Q 79.6 -76.5 80.2 -75.5 L 80.2 -75.5 L 80.2 -75.5 Q 80.8 -74.4 81.8 -74.4 L 81.8 -74.4 L 81.8 -74.4 Q 83.8 -74.4 85.3 -76.3 L 85.3 -76.3 L 85.3 -76.3 Q 86.8 -78.3 87.4 -81.7 L 87.4 -81.7 L 90.8 -100.5 L 90.8 -100.5 Q 89.5 -101.6 87.9 -101.6 L 87.9 -101.6 L 87.9 -101.6 Q 86.3 -101.6 85.4 -101.1 L 85.4 -101.1 L 85.4 -101.1 Q 84.5 -100.6 83.7 -99.5 Z M 111.9 -98.3 L 111.9 -98.3 L 111.9 -98.3 Q 114.1 -101.4 117.4 -103.4 L 117.4 -103.4 L 117.4 -103.4 Q 120.7 -105.5 124.7 -105.5 L 124.7 -105.5 L 124.7 -105.5 Q 128.8 -105.5 130.7 -104.2 L 130.7 -104.2 L 143.2 -105.5 L 138.9 -80.9 L 138.9 -80.9 Q 136.6 -68.4 131.9 -63.4 L 131.9 -63.4 L 131.9 -63.4 Q 127.3 -58.8 118.5 -58.8 L 118.5 -58.8 L 118.5 -58.8 Q 111.8 -58.8 108 -60.9 L 108 -60.9 L 108 -60.9 Q 104.1 -63 104.1 -66.5 L 104.1 -66.5 L 104.1 -66.5 Q 104.1 -69.1 106.1 -70.6 L 106.1 -70.6 L 106.1 -70.6 Q 108.1 -72.1 111.2 -72.1 L 111.2 -72.1 L 111.2 -72.1 Q 113.8 -72.1 115.9 -70.9 L 115.9 -70.9 L 115.9 -70.9 Q 117.1 -70.3 117.7 -69.4 L 117.7 -69.4 L 117.7 -69.4 Q 116.2 -68.1 116.2 -66 L 116.2 -66 L 116.2 -66 Q 116.2 -63.2 118.8 -63.2 L 118.8 -63.2 L 118.8 -63.2 Q 123.1 -63.2 125.5 -73.3 L 125.5 -73.3 L 125.5 -73.3 Q 126.2 -76.1 126.8 -78.9 L 126.8 -78.9 L 126.8 -78.9 Q 123.9 -75.3 117.4 -75.3 L 117.4 -75.3 L 117.4 -75.3 Q 112.8 -75.3 110.2 -77.5 L 110.2 -77.5 L 110.2 -77.5 Q 107.6 -79.7 107.6 -84.8 L 107.6 -84.8 L 107.6 -84.8 Q 107.6 -88 108.7 -91.6 L 108.7 -91.6 L 108.7 -91.6 Q 109.7 -95.2 111.9 -98.3 Z M 120.2 -84.6 L 120.2 -84.6 L 120.2 -84.6 Q 120.2 -80.3 122.5 -80.3 L 122.5 -80.3 L 122.5 -80.3 Q 124 -80.3 125.5 -81.9 L 125.5 -81.9 L 125.5 -81.9 Q 126.6 -83.3 127.1 -85.3 L 127.1 -85.3 L 130.4 -101.7 L 130.4 -101.7 Q 130 -101.8 129.7 -101.9 L 129.7 -101.9 L 129.7 -101.9 Q 129.1 -102.1 128.2 -102.1 L 128.2 -102.1 L 128.2 -102.1 Q 124.3 -102.1 122 -95.7 L 122 -95.7 L 122 -95.7 Q 120.2 -90.8 120.2 -84.6 Z M 171.6 -82.4 L 171.6 -82.4 L 171.6 -82.4 Q 173.2 -81.3 173.2 -78.9 L 173.2 -78.9 L 173.2 -78.9 Q 173.2 -76.5 172 -74.9 L 172 -74.9 L 172 -74.9 Q 170.8 -73.4 168.8 -72.4 L 168.8 -72.4 L 168.8 -72.4 Q 164.7 -70.3 160.3 -70.3 L 160.3 -70.3 L 160.3 -70.3 Q 155.9 -70.3 153.3 -71.2 L 153.3 -71.2 L 153.3 -71.2 Q 150.7 -72.2 149 -74 L 149 -74 L 149 -74 Q 145.6 -77.4 145.6 -83.6 L 145.6 -83.6 L 145.6 -83.6 Q 145.6 -93.3 150.8 -99.1 L 150.8 -99.1 L 150.8 -99.1 Q 156.5 -105.5 166.3 -105.5 L 166.3 -105.5 L 166.3 -105.5 Q 172.3 -105.5 175.3 -102.9 L 175.3 -102.9 L 175.3 -102.9 Q 177.6 -101 177.6 -97.9 L 177.6 -97.9 L 177.6 -97.9 Q 177.6 -86.6 158.1 -86.6 L 158.1 -86.6 L 158.1 -86.6 Q 157.9 -84.9 157.9 -83.5 L 157.9 -83.5 L 157.9 -83.5 Q 157.9 -80.6 159.2 -79.5 L 159.2 -79.5 L 159.2 -79.5 Q 160.5 -78.3 162.9 -78.3 L 162.9 -78.3 L 162.9 -78.3 Q 165.4 -78.3 168 -79.5 L 168 -79.5 L 168 -79.5 Q 170.5 -80.6 171.6 -82.4 Z M 158.6 -89.3 L 158.6 -89.3 L 158.6 -89.3 Q 163.1 -89.3 165.7 -92.2 L 165.7 -92.2 L 165.7 -92.2 Q 168.4 -94.9 168.4 -99.1 L 168.4 -99.1 L 168.4 -99.1 Q 168.4 -100.6 167.8 -101.4 L 167.8 -101.4 L 167.8 -101.4 Q 167.3 -102.2 166.2 -102.2 L 166.2 -102.2 L 166.2 -102.2 Q 165.1 -102.2 164.2 -101.8 L 164.2 -101.8 L 164.2 -101.8 Q 163.2 -101.4 162.3 -100 L 162.3 -100 L 162.3 -100 Q 159.9 -96.8 158.6 -89.3 Z M 198.9 -94 L 198.9 -94 L 198.9 -94 Q 199.8 -96.4 199.8 -98.4 L 199.8 -98.4 L 199.8 -98.4 Q 199.8 -102.2 196.7 -102.2 L 196.7 -102.2 L 196.7 -102.2 Q 195.1 -102.2 193.8 -100.8 L 193.8 -100.8 L 193.8 -100.8 Q 192.5 -99.3 192.5 -97.5 L 192.5 -97.5 L 192.5 -97.5 Q 192.5 -96.3 193.5 -95.2 L 193.5 -95.2 L 193.5 -95.2 Q 195 -93.8 198.8 -91.5 L 198.8 -91.5 L 198.8 -91.5 Q 202.5 -89.2 204 -87.3 L 204 -87.3 L 204 -87.3 Q 205.4 -85.4 205.4 -82.9 L 205.4 -82.9 L 205.4 -82.9 Q 205.4 -80.3 204.2 -77.9 L 204.2 -77.9 L 204.2 -77.9 Q 202.9 -75.5 200.7 -73.9 L 200.7 -73.9 L 200.7 -73.9 Q 195.9 -70.3 188.2 -70.3 L 188.2 -70.3 L 188.2 -70.3 Q 184 -70.3 180.8 -72.5 L 180.8 -72.5 L 180.8 -72.5 Q 177.6 -74.6 177.6 -77.1 L 177.6 -77.1 L 177.6 -77.1 Q 177.6 -79.6 179.5 -81 L 179.5 -81 L 179.5 -81 Q 181.3 -82.5 184 -82.5 L 184 -82.5 L 184 -82.5 Q 186.7 -82.5 188.3 -81.5 L 188.3 -81.5 L 188.3 -81.5 Q 187.5 -79.4 187.5 -78 L 187.5 -78 L 187.5 -78 Q 187.5 -73.7 191.1 -73.7 L 191.1 -73.7 L 191.1 -73.7 Q 192.6 -73.7 193.6 -74.7 L 193.6 -74.7 L 193.6 -74.7 Q 194.7 -75.7 194.7 -77.3 L 194.7 -77.3 L 194.7 -77.3 Q 194.7 -80.6 189.2 -84 L 189.2 -84 L 189.2 -84 Q 184.7 -87 183.7 -88.1 L 183.7 -88.1 L 183.7 -88.1 Q 181.9 -90.2 181.9 -92.7 L 181.9 -92.7 L 181.9 -92.7 Q 181.9 -95.3 183.2 -97.7 L 183.2 -97.7 L 183.2 -97.7 Q 184.4 -100.2 186.6 -101.9 L 186.6 -101.9 L 186.6 -101.9 Q 191.3 -105.5 199.4 -105.5 L 199.4 -105.5 L 199.4 -105.5 Q 203.6 -105.5 206 -103.8 L 206 -103.8 L 206 -103.8 Q 208.5 -102.1 208.5 -99.3 L 208.5 -99.3 L 208.5 -99.3 Q 208.5 -96.5 206.8 -94.9 L 206.8 -94.9 L 206.8 -94.9 Q 205.1 -93.3 202 -93.3 L 202 -93.3 L 202 -93.3 Q 199.9 -93.3 198.9 -94 Z M 250 -92.2 L 262.9 -93.3 L 262.9 -93.3 Q 258.3 -83.2 258.3 -71.5 L 258.3 -71.5 L 258.3 -71.5 Q 256.6 -70.3 254 -70.3 L 254 -70.3 L 254 -70.3 Q 251.5 -70.3 249.9 -71.5 L 249.9 -71.5 L 249.9 -71.5 Q 248.3 -72.6 248 -73.9 L 248 -73.9 L 248 -73.9 Q 246.4 -72.2 243.8 -71.2 L 243.8 -71.2 L 243.8 -71.2 Q 241.2 -70.3 238.4 -70.3 L 238.4 -70.3 L 238.4 -70.3 Q 235.7 -70.3 233.3 -71.2 L 233.3 -71.2 L 233.3 -71.2 Q 230.9 -72.1 229 -74.1 L 229 -74.1 L 229 -74.1 Q 224.9 -78.4 224.9 -86.7 L 224.9 -86.7 L 224.9 -86.7 Q 224.9 -99.5 231.8 -107.1 L 231.8 -107.1 L 231.8 -107.1 Q 238.8 -115.1 251.3 -115.1 L 251.3 -115.1 L 251.3 -115.1 Q 260 -115.1 263 -110.6 L 263 -110.6 L 263 -110.6 Q 264 -109.2 264 -107.5 L 264 -107.5 L 264 -107.5 Q 264 -105.8 263.2 -104.4 L 263.2 -104.4 L 263.2 -104.4 Q 262.5 -102.9 261.4 -101.8 L 261.4 -101.8 L 261.4 -101.8 Q 258.6 -99.2 255.2 -99.2 L 255.2 -99.2 L 255.2 -99.2 Q 253.9 -99.2 252.6 -99.7 L 252.6 -99.7 L 252.6 -99.7 Q 252.8 -101.6 252.8 -103.8 L 252.8 -103.8 L 252.8 -103.8 Q 252.8 -106.1 252.7 -107.1 L 252.7 -107.1 L 252.7 -107.1 Q 252.5 -108.1 252.1 -108.9 L 252.1 -108.9 L 252.1 -108.9 Q 251.3 -110.7 249.5 -110.7 L 249.5 -110.7 L 249.5 -110.7 Q 247.7 -110.7 245.6 -108.7 L 245.6 -108.7 L 245.6 -108.7 Q 243.6 -106.8 242 -103.6 L 242 -103.6 L 242 -103.6 Q 238.5 -96.4 238.5 -87.7 L 238.5 -87.7 L 238.5 -87.7 Q 238.5 -83.8 240 -81 L 240 -81 L 240 -81 Q 241.7 -77.9 244.7 -77.9 L 244.7 -77.9 L 244.7 -77.9 Q 245.7 -77.9 246.6 -78.4 L 246.6 -78.4 L 246.6 -78.4 Q 247.5 -78.9 247.9 -79.3 L 247.9 -79.3 L 250 -92.2 Z M 268.8 -73.5 L 268.8 -73.5 L 268.8 -73.5 Q 267.3 -75.1 266.6 -77.8 L 266.6 -77.8 L 266.6 -77.8 Q 266 -80.4 266 -84.7 L 266 -84.7 L 266 -84.7 Q 266 -89 267.4 -92.9 L 267.4 -92.9 L 267.4 -92.9 Q 268.9 -96.8 271.6 -99.6 L 271.6 -99.6 L 271.6 -99.6 Q 277.1 -105.5 286.2 -105.5 L 286.2 -105.5 L 286.2 -105.5 Q 289.5 -105.5 291.8 -104.4 L 291.8 -104.4 L 302.8 -105.5 L 298 -80.5 L 298 -80.5 Q 297.8 -79.7 297.8 -78.3 L 297.8 -78.3 L 297.8 -78.3 Q 297.8 -76.9 298.7 -76 L 298.7 -76 L 298.7 -76 Q 299.6 -75.1 300.8 -75 L 300.8 -75 L 300.8 -75 Q 300.2 -72.8 297.9 -71.6 L 297.9 -71.6 L 297.9 -71.6 Q 295.5 -70.3 292.9 -70.3 L 292.9 -70.3 L 292.9 -70.3 Q 290.3 -70.3 288.5 -71.3 L 288.5 -71.3 L 288.5 -71.3 Q 286.8 -72.3 286.3 -73.9 L 286.3 -73.9 L 286.3 -73.9 Q 285.2 -72.3 283.1 -71.3 L 283.1 -71.3 L 283.1 -71.3 Q 280.9 -70.3 278 -70.3 L 278 -70.3 L 278 -70.3 Q 275.1 -70.3 272.7 -71 L 272.7 -71 L 272.7 -71 Q 270.3 -71.8 268.8 -73.5 Z M 282.3 -99.5 L 282.3 -99.5 L 282.3 -99.5 Q 281.6 -98.3 280.9 -96.4 L 280.9 -96.4 L 280.9 -96.4 Q 280.3 -94.4 279.2 -89.2 L 279.2 -89.2 L 279.2 -89.2 Q 278.2 -84 278.2 -80.3 L 278.2 -80.3 L 278.2 -80.3 Q 278.2 -76.5 278.8 -75.5 L 278.8 -75.5 L 278.8 -75.5 Q 279.3 -74.4 280.4 -74.4 L 280.4 -74.4 L 280.4 -74.4 Q 282.4 -74.4 283.9 -76.3 L 283.9 -76.3 L 283.9 -76.3 Q 285.4 -78.3 286 -81.7 L 286 -81.7 L 289.4 -100.5 L 289.4 -100.5 Q 288 -101.6 286.5 -101.6 L 286.5 -101.6 L 286.5 -101.6 Q 284.9 -101.6 284 -101.1 L 284 -101.1 L 284 -101.1 Q 283.1 -100.6 282.3 -99.5 Z M 321.5 -75.1 L 321.5 -75.1 L 321.5 -75.1 Q 319.5 -70.3 313.2 -70.3 L 313.2 -70.3 L 313.2 -70.3 Q 310 -70.3 308 -72.5 L 308 -72.5 L 308 -72.5 Q 306.3 -74.4 306.3 -76.5 L 306.3 -76.5 L 306.3 -76.5 Q 306.3 -81.3 308.5 -91.8 L 308.5 -91.8 L 313.2 -116.4 L 326.2 -117.6 L 320 -85.3 L 320 -85.3 Q 318.9 -80.5 318.9 -78.9 L 318.9 -78.9 L 318.9 -78.9 Q 318.9 -75.2 321.5 -75.1 Z M 342.3 -75.1 L 342.3 -75.1 L 342.3 -75.1 Q 340.3 -70.3 333.9 -70.3 L 333.9 -70.3 L 333.9 -70.3 Q 330.7 -70.3 328.7 -72.5 L 328.7 -72.5 L 328.7 -72.5 Q 327 -74.4 327 -76.5 L 327 -76.5 L 327 -76.5 Q 327 -81.3 329.3 -91.8 L 329.3 -91.8 L 333.9 -116.4 L 346.9 -117.6 L 340.7 -85.3 L 340.7 -85.3 Q 339.6 -80.5 339.6 -78.9 L 339.6 -78.9 L 339.6 -78.9 Q 339.6 -75.2 342.3 -75.1 Z M 373.6 -82.4 L 373.6 -82.4 L 373.6 -82.4 Q 375.2 -81.3 375.2 -78.9 L 375.2 -78.9 L 375.2 -78.9 Q 375.2 -76.5 374 -74.9 L 374 -74.9 L 374 -74.9 Q 372.8 -73.4 370.8 -72.4 L 370.8 -72.4 L 370.8 -72.4 Q 366.7 -70.3 362.3 -70.3 L 362.3 -70.3 L 362.3 -70.3 Q 357.9 -70.3 355.3 -71.2 L 355.3 -71.2 L 355.3 -71.2 Q 352.7 -72.2 351 -74 L 351 -74 L 351 -74 Q 347.6 -77.4 347.6 -83.6 L 347.6 -83.6 L 347.6 -83.6 Q 347.6 -93.3 352.8 -99.1 L 352.8 -99.1 L 352.8 -99.1 Q 358.4 -105.5 368.2 -105.5 L 368.2 -105.5 L 368.2 -105.5 Q 374.3 -105.5 377.3 -102.9 L 377.3 -102.9 L 377.3 -102.9 Q 379.6 -101 379.6 -97.9 L 379.6 -97.9 L 379.6 -97.9 Q 379.6 -86.6 360.1 -86.6 L 360.1 -86.6 L 360.1 -86.6 Q 359.9 -84.9 359.9 -83.5 L 359.9 -83.5 L 359.9 -83.5 Q 359.9 -80.6 361.2 -79.5 L 361.2 -79.5 L 361.2 -79.5 Q 362.5 -78.3 364.9 -78.3 L 364.9 -78.3 L 364.9 -78.3 Q 367.3 -78.3 369.9 -79.5 L 369.9 -79.5 L 369.9 -79.5 Q 372.5 -80.6 373.6 -82.4 Z M 360.6 -89.3 L 360.6 -89.3 L 360.6 -89.3 Q 365.1 -89.3 367.7 -92.2 L 367.7 -92.2 L 367.7 -92.2 Q 370.4 -94.9 370.4 -99.1 L 370.4 -99.1 L 370.4 -99.1 Q 370.4 -100.6 369.8 -101.4 L 369.8 -101.4 L 369.8 -101.4 Q 369.3 -102.2 368.2 -102.2 L 368.2 -102.2 L 368.2 -102.2 Q 367.1 -102.2 366.2 -101.8 L 366.2 -101.8 L 366.2 -101.8 Q 365.2 -101.4 364.3 -100 L 364.3 -100 L 364.3 -100 Q 361.9 -96.8 360.6 -89.3 Z M 401.8 -89.5 L 401.8 -89.5 L 401.8 -89.5 Q 404.1 -93.6 404.1 -97.8 L 404.1 -97.8 L 404.1 -97.8 Q 404.1 -100.5 402.1 -100.5 L 402.1 -100.5 L 402.1 -100.5 Q 400.6 -100.5 399 -97.9 L 399 -97.9 L 399 -97.9 Q 397.3 -95.3 396.8 -91.9 L 396.8 -91.9 L 393.5 -71.6 L 380.2 -70.3 L 386.7 -104.2 L 397.3 -105.5 L 396.1 -99 L 396.1 -99 Q 399.3 -105.5 406.3 -105.5 L 406.3 -105.5 L 406.3 -105.5 Q 410 -105.5 412 -103.6 L 412 -103.6 L 412 -103.6 Q 414.1 -101.6 414.1 -97.7 L 414.1 -97.7 L 414.1 -97.7 Q 414.1 -93.8 411.5 -91.3 L 411.5 -91.3 L 411.5 -91.3 Q 408.9 -88.8 404.5 -88.8 L 404.5 -88.8 L 404.5 -88.8 Q 402.5 -88.8 401.8 -89.5 Z M 435.4 -78.8 L 435.4 -78.8 L 435.4 -78.8 Q 432.1 -75.3 426 -75.3 L 426 -75.3 L 426 -75.3 Q 418.4 -75.3 416.8 -80.9 L 416.8 -80.9 L 416.8 -80.9 Q 416.3 -82.6 416.3 -84.4 L 416.3 -84.4 L 416.3 -84.4 Q 416.3 -86.3 416.7 -88.2 L 416.7 -88.2 L 419.7 -104.2 L 432.7 -105.5 L 429.2 -86.9 L 429.2 -86.9 Q 429 -86 428.8 -85.1 L 428.8 -85.1 L 428.8 -85.1 Q 428.7 -84.2 428.7 -83.3 L 428.7 -83.3 L 428.7 -83.3 Q 428.7 -82.4 429 -81.8 L 429 -81.8 L 429 -81.8 Q 429.3 -81.2 429.7 -80.8 L 429.7 -80.8 L 429.7 -80.8 Q 430.5 -80.3 431.9 -80.3 L 431.9 -80.3 L 431.9 -80.3 Q 433.3 -80.3 434.4 -81.9 L 434.4 -81.9 L 434.4 -81.9 Q 435.6 -83.6 436.2 -86.5 L 436.2 -86.5 L 439.7 -104.2 L 452.3 -105.5 L 447.5 -80.3 L 447.5 -80.3 Q 445.2 -68 440.3 -63.2 L 440.3 -63.2 L 440.3 -63.2 Q 437.8 -60.7 434.6 -59.7 L 434.6 -59.7 L 434.6 -59.7 Q 431.3 -58.7 427.2 -58.7 L 427.2 -58.7 L 427.2 -58.7 Q 420.5 -58.7 416.6 -60.8 L 416.6 -60.8 L 416.6 -60.8 Q 412.8 -62.9 412.8 -66.4 L 412.8 -66.4 L 412.8 -66.4 Q 412.8 -69.1 414.8 -70.6 L 414.8 -70.6 L 414.8 -70.6 Q 416.8 -72.1 419.8 -72.1 L 419.8 -72.1 L 419.8 -72.1 Q 422.5 -72.1 424.6 -70.9 L 424.6 -70.9 L 424.6 -70.9 Q 425.8 -70.2 426.4 -69.3 L 426.4 -69.3 L 426.4 -69.3 Q 424.9 -68 424.9 -65.9 L 424.9 -65.9 L 424.9 -65.9 Q 424.9 -63.1 427.4 -63.1 L 427.4 -63.1 L 427.4 -63.1 Q 431.7 -63.1 434.1 -72.8 L 434.1 -72.8 L 434.1 -72.8 Q 434.8 -75.7 435.4 -78.8 Z" fill="url(#editing-gradient-gradient)"></path></g></g><style>text {
  font-size: 64px;
  font-family: Arial Black;
  dominant-baseline: central;
  text-anchor: middle;
}</style></svg>